<svg id="drawing" xmlns="http://www.w3.org/2000/svg" version="1.1" xmlns:xlink="http://www.w3.org/1999/xlink" width="479" height="406.5" viewBox="221 121.5 479 406.5"><defs id="SvgjsDefs1001"><marker id="SvgjsMarker1028" markerWidth="16.23606797749979" markerHeight="10.550836550532098" refX="-1" refY="3.8990363547948754" viewBox="-1 -1.3763819204711738 16.23606797749979 10.550836550532098" orient="auto" markerUnits="userSpaceOnUse"><path id="SvgjsPath1029" d="M12 3.899036407470703L0 7.798072814941406V0Z " stroke="#323232" stroke-width="2" fill="#323232" transform="matrix(1,0,0,1,0,0)"></path></marker><marker id="SvgjsMarker1036" markerWidth="16.23606797749979" markerHeight="10.550836550532098" refX="-1" refY="3.8990363547948754" viewBox="-1 -1.3763819204711738 16.23606797749979 10.550836550532098" orient="auto" markerUnits="userSpaceOnUse"><path id="SvgjsPath1037" d="M12 3.899036407470703L0 7.798072814941406V0Z " stroke="#323232" stroke-width="2" fill="#323232" transform="matrix(1,0,0,1,0,0)"></path></marker><marker id="SvgjsMarker1044" markerWidth="16.23606797749979" markerHeight="10.550836550532098" refX="-1" refY="3.8990363547948754" viewBox="-1 -1.3763819204711738 16.23606797749979 10.550836550532098" orient="auto" markerUnits="userSpaceOnUse"><path id="SvgjsPath1045" d="M12 3.899036407470703L0 7.798072814941406V0Z " stroke="#323232" stroke-width="2" fill="#323232" transform="matrix(1,0,0,1,0,0)"></path></marker><marker id="SvgjsMarker1055" markerWidth="16.23606797749979" markerHeight="10.550836550532098" refX="-1" refY="3.8990363547948754" viewBox="-1 -1.3763819204711738 16.23606797749979 10.550836550532098" orient="auto" markerUnits="userSpaceOnUse"><path id="SvgjsPath1056" d="M12 3.899036407470703L0 7.798072814941406V0Z " stroke="#323232" stroke-width="2" fill="#323232" transform="matrix(1,0,0,1,0,0)"></path></marker></defs><g id="SvgjsG1007"><path id="SvgjsPath1008" d="M221 121.5H700V528H221V121.5Z " fill-opacity="0" fill="none"></path><g id="SvgjsG1009"><g id="SvgjsG1010" transform="translate(244 153)" opacity="1"><path id="SvgjsPath1011" d="M0 0L158 0L158 47L0 47Z " stroke-dasharray="none" stroke="#323232" stroke-width="2" fill="#ffffff" opacity="1"></path><g id="SvgjsG1012" transform="matrix(1 0 0 1 10 15.375)" fill="#ffffff"><text id="SvgjsText1013" font-family="微软雅黑,黑体,Arial,宋体" fill="#000000" font-size="13" font-weight="normal" font-style="normal" text-anchor="middle" text-decoration="blink" x="69" y="12">getUserInfo</text></g></g><g id="SvgjsG1014" transform="translate(241 303)" opacity="1"><path id="SvgjsPath1015" d="M0 0L158 0L158 55L0 55Z " stroke-dasharray="none" stroke="#323232" stroke-width="2" fill="#ffffff" opacity="1"></path><g id="SvgjsG1016" transform="matrix(1 0 0 1 10 19.375)" fill="#ffffff"><text id="SvgjsText1017" font-family="微软雅黑,黑体,Arial,宋体" fill="#000000" font-size="13" font-weight="normal" font-style="normal" text-anchor="middle" text-decoration="blink" x="69" y="12">getGroupInfo</text></g></g><g id="SvgjsG1018" transform="translate(241 463)" opacity="1"><path id="SvgjsPath1019" d="M0 0L158 0L158 45L0 45Z " stroke-dasharray="none" stroke="#323232" stroke-width="2" fill="#ffffff" opacity="1"></path><g id="SvgjsG1020" transform="matrix(1 0 0 1 10 14.375)" fill="#ffffff"><text id="SvgjsText1021" font-family="微软雅黑,黑体,Arial,宋体" fill="#000000" font-size="13" font-weight="normal" font-style="normal" text-anchor="middle" text-decoration="blink" x="69" y="12">getTaskInfo</text></g></g><g id="SvgjsG1022" transform="translate(580 141.5)" opacity="1"><path id="SvgjsPath1023" d="M0 0L100 0L100 70L0 70Z " stroke-dasharray="none" stroke="#323232" stroke-width="2" fill="#ffffff" opacity="1"></path><g id="SvgjsG1024" transform="matrix(1 0 0 1 10 26.875)" fill="#ffffff"><text id="SvgjsText1025" font-family="微软雅黑,黑体,Arial,宋体" fill="#000000" font-size="13" font-weight="normal" font-style="normal" text-anchor="middle" text-decoration="blink" x="40" y="12">Promise</text></g></g><g id="SvgjsG1026"><path id="SvgjsPath1027" d="M402 176.5L491 176.5L491 176.5L564.763916015625 176.5 " stroke-dasharray="none" stroke="#323232" stroke-width="2" fill="none" marker-end="url(#SvgjsMarker1028)"></path><g id="SvgjsG1030" transform="matrix(1 0 0 1 483.3819660112501 160.25)" fill="#ffffff"><path id="SvgjsPath1031" d="M0 0H36.515625V13H0V0Z " fill="#ffffff" transform="translate(-18.2578125 0)"></path><text id="SvgjsText1032" font-family="Microsoft Yahei,宋体" fill="#000000" font-size="13" font-weight="normal" font-style="normal" text-anchor="middle" text-decoration="blink" x="0" y="11">return </text><text id="SvgjsText1033" font-family="Microsoft Yahei,宋体" fill="#000000" font-size="13" font-weight="normal" font-style="normal" text-anchor="middle" text-decoration="blink" x="0" y="16.25"></text></g></g><g id="SvgjsG1034"><path id="SvgjsPath1035" d="M630 211.5L630 257.25L320 257.25L320 287.7639465332031 " stroke-dasharray="none" stroke="#323232" stroke-width="2" fill="none" marker-end="url(#SvgjsMarker1036)"></path><g id="SvgjsG1038" transform="matrix(1 0 0 1 482.61803398874986 241)" fill="#ffffff"><path id="SvgjsPath1039" d="M0 0H95.828125V13H0V0Z " fill="#ffffff" transform="translate(-47.9140625 0)"></path><text id="SvgjsText1040" font-family="Microsoft Yahei,宋体" fill="#000000" font-size="13" font-weight="normal" font-style="normal" text-anchor="middle" text-decoration="blink" x="0" y="11">Promise resolve</text><text id="SvgjsText1041" font-family="Microsoft Yahei,宋体" fill="#000000" font-size="13" font-weight="normal" font-style="normal" text-anchor="middle" text-decoration="blink" x="0" y="16.25"></text></g></g><g id="SvgjsG1042"><path id="SvgjsPath1043" d="M399 330.5L489.5 330.5L489.5 330.5L564.763916015625 330.5 " stroke-dasharray="none" stroke="#323232" stroke-width="2" fill="none" marker-end="url(#SvgjsMarker1044)"></path><g id="SvgjsG1046" transform="matrix(1 0 0 1 481.8819660112501 322.375)" fill="#ffffff"><path id="SvgjsPath1047" d="M0 0H36.515625V13H0V0Z " fill="#ffffff" transform="translate(-18.2578125 0)"></path><text id="SvgjsText1048" font-family="Microsoft Yahei,宋体" fill="#000000" font-size="13" font-weight="normal" font-style="normal" text-anchor="middle" text-decoration="blink" x="0" y="11">return </text></g></g><g id="SvgjsG1049" transform="translate(580 295.5)" opacity="1"><path id="SvgjsPath1050" d="M0 0L100 0L100 70L0 70Z " stroke-dasharray="none" stroke="#323232" stroke-width="2" fill="#ffffff" opacity="1"></path><g id="SvgjsG1051" transform="matrix(1 0 0 1 10 26.875)" fill="#ffffff"><text id="SvgjsText1052" font-family="微软雅黑,黑体,Arial,宋体" fill="#000000" font-size="13" font-weight="normal" font-style="normal" text-anchor="middle" text-decoration="blink" x="40" y="12">Promise</text></g></g><g id="SvgjsG1053"><path id="SvgjsPath1054" d="M630 365.5L630 414.25L320 414.25L320 447.7639465332031 " stroke-dasharray="none" stroke="#323232" stroke-width="2" fill="none" marker-end="url(#SvgjsMarker1055)"></path><g id="SvgjsG1057" transform="matrix(1 0 0 1 482.61803398874986 398)" fill="#ffffff"><path id="SvgjsPath1058" d="M0 0H95.828125V13H0V0Z " fill="#ffffff" transform="translate(-47.9140625 0)"></path><text id="SvgjsText1059" font-family="Microsoft Yahei,宋体" fill="#000000" font-size="13" font-weight="normal" font-style="normal" text-anchor="middle" text-decoration="blink" x="0" y="11">Promise resolve</text><text id="SvgjsText1060" font-family="Microsoft Yahei,宋体" fill="#000000" font-size="13" font-weight="normal" font-style="normal" text-anchor="middle" text-decoration="blink" x="0" y="16.25"></text></g></g></g></g></svg>