<svg id="drawing" xmlns="http://www.w3.org/2000/svg" version="1.1" xmlns:xlink="http://www.w3.org/1999/xlink" width="776" height="561" viewBox="84 90 776 561"><defs id="SvgjsDefs1001"><marker id="SvgjsMarker1024" markerWidth="16.23606797749979" markerHeight="10.550836550532098" refX="-1" refY="3.8990363547948754" viewBox="-1 -1.3763819204711738 16.23606797749979 10.550836550532098" orient="auto" markerUnits="userSpaceOnUse"><path id="SvgjsPath1025" d="M12 3.899036407470703L0 7.798072814941406V0Z " stroke="#323232" stroke-width="2" fill="#323232" transform="matrix(1,0,0,1,0,0)"></path></marker><marker id="SvgjsMarker1036" markerWidth="16.23606797749979" markerHeight="10.550836550532098" refX="-1" refY="3.8990363547948754" viewBox="-1 -1.3763819204711738 16.23606797749979 10.550836550532098" orient="auto" markerUnits="userSpaceOnUse"><path id="SvgjsPath1037" d="M12 3.899036407470703L0 7.798072814941406V0Z " stroke="#323232" stroke-width="2" fill="#323232" transform="matrix(1,0,0,1,0,0)"></path></marker><marker id="SvgjsMarker1044" markerWidth="16.23606797749979" markerHeight="10.550836550532098" refX="-1" refY="3.8990363547948754" viewBox="-1 -1.3763819204711738 16.23606797749979 10.550836550532098" orient="auto" markerUnits="userSpaceOnUse"><path id="SvgjsPath1045" d="M12 3.899036407470703L0 7.798072814941406V0Z " stroke="#323232" stroke-width="2" fill="#323232" transform="matrix(1,0,0,1,0,0)"></path></marker><marker id="SvgjsMarker1056" markerWidth="16.23606797749979" markerHeight="10.550836550532098" refX="-1" refY="3.8990363547948754" viewBox="-1 -1.3763819204711738 16.23606797749979 10.550836550532098" orient="auto" markerUnits="userSpaceOnUse"><path id="SvgjsPath1057" d="M12 3.899036407470703L0 7.798072814941406V0Z " stroke="#323232" stroke-width="2" fill="#323232" transform="matrix(1,0,0,1,0,0)"></path></marker></defs><g id="SvgjsG1007"><path id="SvgjsPath1008" d="M84 90H860V651H84V90Z " fill-opacity="0" fill="none"></path><g id="SvgjsG1009"><g id="SvgjsG1010" transform="translate(104 110)" opacity="1"><path id="SvgjsPath1011" d="M0 0L216 0L216 58L0 58Z " stroke-dasharray="none" stroke="#323232" stroke-width="2" fill="#ffffff" opacity="1"></path><g id="SvgjsG1012" transform="matrix(1 0 0 1 10 20.875)" fill="#ffffff"><text id="SvgjsText1013" font-family="微软雅黑,黑体,Arial,宋体" fill="#000000" font-size="13" font-weight="normal" font-style="normal" text-anchor="middle" text-decoration="blink" x="98" y="12">loadImg('1.png')</text></g></g><g id="SvgjsG1014" transform="translate(405 110)" opacity="1"><path id="SvgjsPath1015" d="M0 0L166 0L166 58L0 58Z " stroke-dasharray="none" stroke="#323232" stroke-width="2" fill="#ffffff" opacity="1"></path><g id="SvgjsG1016" transform="matrix(1 0 0 1 10 20.875)" fill="#ffffff"><text id="SvgjsText1017" font-family="微软雅黑,黑体,Arial,宋体" fill="#000000" font-size="13" font-weight="normal" font-style="normal" text-anchor="middle" text-decoration="blink" x="73" y="12">loadImg('2.png')</text></g></g><g id="SvgjsG1018" transform="translate(681 110)" opacity="1"><path id="SvgjsPath1019" d="M0 0L159 0L159 58L0 58Z " stroke-dasharray="none" stroke="#323232" stroke-width="2" fill="#ffffff" opacity="1"></path><g id="SvgjsG1020" transform="matrix(1 0 0 1 10 20.875)" fill="#ffffff"><text id="SvgjsText1021" font-family="微软雅黑,黑体,Arial,宋体" fill="#000000" font-size="13" font-weight="normal" font-style="normal" text-anchor="middle" text-decoration="blink" x="69.5" y="12">loadImg('3.png')</text></g></g><g id="SvgjsG1022"><path id="SvgjsPath1023" d="M212 168L212 396L422.7639465332031 396 " stroke-dasharray="none" stroke="#323232" stroke-width="2" fill="none" marker-end="url(#SvgjsMarker1024)"></path><g id="SvgjsG1026" transform="matrix(1 0 0 1 212 371.13196601125014)" fill="#ffffff"><path id="SvgjsPath1027" d="M0 0H44.171875V13H0V0Z " fill="#ffffff" transform="translate(-22.0859375 0)"></path><text id="SvgjsText1028" font-family="Microsoft Yahei,宋体" fill="#000000" font-size="13" font-weight="normal" font-style="normal" text-anchor="middle" text-decoration="blink" x="0" y="11">resolve</text><text id="SvgjsText1029" font-family="Microsoft Yahei,宋体" fill="#000000" font-size="13" font-weight="normal" font-style="normal" text-anchor="middle" text-decoration="blink" x="0" y="16.25"></text></g></g><g id="SvgjsG1030" transform="translate(438 361)" opacity="1"><path id="SvgjsPath1031" d="M0 0L100 0L100 70L0 70Z " stroke-dasharray="none" stroke="#323232" stroke-width="2" fill="#ffffff" opacity="1"></path><g id="SvgjsG1032" transform="matrix(1 0 0 1 10 26.875)" fill="#ffffff"><text id="SvgjsText1033" font-family="微软雅黑,黑体,Arial,宋体" fill="#000000" font-size="13" font-weight="normal" font-style="normal" text-anchor="middle" text-decoration="blink" x="40" y="12">Promise.all</text></g></g><g id="SvgjsG1034"><path id="SvgjsPath1035" d="M488 168L488 264.5L488 264.5L488 345.7639465332031 " stroke-dasharray="none" stroke="#323232" stroke-width="2" fill="none" marker-end="url(#SvgjsMarker1036)"></path><g id="SvgjsG1038" transform="matrix(1 0 0 1 488 240.63196601125014)" fill="#ffffff"><path id="SvgjsPath1039" d="M0 0H44.171875V13H0V0Z " fill="#ffffff" transform="translate(-22.0859375 0)"></path><text id="SvgjsText1040" font-family="Microsoft Yahei,宋体" fill="#000000" font-size="13" font-weight="normal" font-style="normal" text-anchor="middle" text-decoration="blink" x="0" y="11">resolve</text><text id="SvgjsText1041" font-family="Microsoft Yahei,宋体" fill="#000000" font-size="13" font-weight="normal" font-style="normal" text-anchor="middle" text-decoration="blink" x="0" y="16.25"></text></g></g><g id="SvgjsG1042"><path id="SvgjsPath1043" d="M760.5 168L760.5 396L553.236083984375 396 " stroke-dasharray="none" stroke="#323232" stroke-width="2" fill="none" marker-end="url(#SvgjsMarker1044)"></path><g id="SvgjsG1046" transform="matrix(1 0 0 1 760.5 369.3819660112501)" fill="#ffffff"><path id="SvgjsPath1047" d="M0 0H44.171875V13H0V0Z " fill="#ffffff" transform="translate(-22.0859375 0)"></path><text id="SvgjsText1048" font-family="Microsoft Yahei,宋体" fill="#000000" font-size="13" font-weight="normal" font-style="normal" text-anchor="middle" text-decoration="blink" x="0" y="11">resolve</text><text id="SvgjsText1049" font-family="Microsoft Yahei,宋体" fill="#000000" font-size="13" font-weight="normal" font-style="normal" text-anchor="middle" text-decoration="blink" x="0" y="16.25"></text></g></g><g id="SvgjsG1050" transform="translate(438 561)" opacity="1"><path id="SvgjsPath1051" d="M0 0L100 0L100 70L0 70Z " stroke-dasharray="none" stroke="#323232" stroke-width="2" fill="#ffffff" opacity="1"></path><g id="SvgjsG1052" transform="matrix(1 0 0 1 10 26.875)" fill="#ffffff"><text id="SvgjsText1053" font-family="微软雅黑,黑体,Arial,宋体" fill="#000000" font-size="13" font-weight="normal" font-style="normal" text-anchor="middle" text-decoration="blink" x="40" y="12">showImgs</text></g></g><g id="SvgjsG1054"><path id="SvgjsPath1055" d="M488 431L488 496L488 496L488 545.763916015625 " stroke-dasharray="none" stroke="#323232" stroke-width="2" fill="none" marker-end="url(#SvgjsMarker1056)"></path><g id="SvgjsG1058" transform="matrix(1 0 0 1 488 480.2569660112501)" fill="#ffffff"><path id="SvgjsPath1059" d="M0 0H28.703125V13H0V0Z " fill="#ffffff" transform="translate(-14.3515625 0)"></path><text id="SvgjsText1060" font-family="Microsoft Yahei,宋体" fill="#000000" font-size="13" font-weight="normal" font-style="normal" text-anchor="middle" text-decoration="blink" x="0" y="11">then</text></g></g></g></g></svg>